<?xml version="1.0" standalone="no"?>
<!DOCTYPE svg PUBLIC "-//W3C//DTD SVG 20010904//EN"
 "http://www.w3.org/TR/2001/REC-SVG-20010904/DTD/svg10.dtd">
<svg version="1.0" xmlns="http://www.w3.org/2000/svg"
 width="595.000000pt" height="595.000000pt" viewBox="0 0 595.000000 595.000000"
 preserveAspectRatio="xMidYMid meet">
<metadata>
Created by potrace 1.14, written by Peter Selinger 2001-2017
</metadata>
<g transform="translate(0.000000,595.000000) scale(0.100000,-0.100000)"
fill="#000000" stroke="none">
<path d="M2780 5530 c-238 -18 -510 -80 -725 -165 -863 -337 -1471 -1099
-1611 -2020 -26 -168 -26 -561 -1 -725 92 -583 338 -1066 753 -1470 697 -680
1699 -901 2629 -580 339 117 658 316 929 580 413 402 661 887 753 1470 25 162
25 558 0 720 -87 562 -331 1051 -720 1442 -205 206 -419 359 -682 488 -190 94
-311 139 -490 185 -254 65 -584 95 -835 75z m343 -2080 c224 -69 373 -304 340
-536 -12 -86 -63 -199 -117 -261 -20 -23 -64 -60 -97 -82 -239 -160 -572 -77
-706 175 -147 275 -18 601 277 701 87 30 212 31 303 3z m-942 -735 c17 -49 42
-110 56 -135 216 -379 658 -536 1055 -376 226 92 408 291 484 531 l22 70 654
0 653 0 -3 -60 c-12 -236 -145 -624 -299 -875 -348 -564 -931 -939 -1588
-1020 -131 -16 -410 -14 -545 5 -626 87 -1171 433 -1520 965 -122 187 -219
406 -275 624 -36 140 -69 341 -60 357 4 6 257 8 671 7 l665 -3 30 -90z"/>
</g>
</svg>
